<svg width="231" height="118" viewBox="0 0 231 118" fill="none" xmlns="http://www.w3.org/2000/svg">
<mask id="mask0_2545_384" style="mask-type:alpha" maskUnits="userSpaceOnUse" x="0" y="0" width="231" height="118">
<rect width="231" height="118" fill="#D9D9D9"/>
</mask>
<g mask="url(#mask0_2545_384)">
<path d="M231 115.5C231 91.8391 223.733 68.749 210.183 49.3527L201.994 55.0734C214.373 72.7922 221.011 93.8854 221.011 115.5L231 115.5Z" fill="#338169"/>
<path d="M207.864 46.1515C193.657 27.2302 173.982 13.1285 151.5 5.75371L148.386 15.2468C168.924 21.9837 186.897 34.8655 199.874 52.1501L207.864 46.1515Z" fill="#8FD5A6"/>
<path d="M147.336 4.47428C124.592 -2.04755 100.393 -1.42679 78.0132 6.25262L81.2558 15.7025C101.7 8.68738 123.805 8.12031 144.582 14.078L147.336 4.47428Z" fill="#D7D258"/>
<path d="M75.051 7.31436C52.8886 15.6006 33.8056 30.4934 20.3832 49.9787L28.6108 55.6463C40.8722 37.8465 58.3045 24.2419 78.5499 16.6724L75.051 7.31436Z" fill="#F1A64F"/>
<path d="M18.6335 52.5942C6.21806 71.7124 -0.262479 94.0769 0.00813898 116.871L9.99818 116.753C9.75097 95.93 15.6709 75.5 27.0125 58.0355L18.6335 52.5942Z" fill="#EA5353"/>
</g>
</svg>
